<?xml version="1.0" encoding="UTF-8" standalone="no"?>
<!-- Uploaded to: SVG Repo, www.svgrepo.com, Generator: SVG Repo Mixer Tools -->

<svg
   width="800px"
   height="800px"
   viewBox="0 0 64 64"
   aria-hidden="true"
   role="img"
   class="iconify iconify--emojione"
   preserveAspectRatio="xMidYMid meet"
   version="1.1"
   id="svg7"
   sodipodi:docname="logo.svg"
   inkscape:version="1.3.2 (091e20e, 2023-11-25, custom)"
   xmlns:inkscape="http://www.inkscape.org/namespaces/inkscape"
   xmlns:sodipodi="http://sodipodi.sourceforge.net/DTD/sodipodi-0.dtd"
   xmlns="http://www.w3.org/2000/svg"
   xmlns:svg="http://www.w3.org/2000/svg">
  <defs
     id="defs7" />
  <sodipodi:namedview
     id="namedview7"
     pagecolor="#505050"
     bordercolor="#eeeeee"
     borderopacity="1"
     inkscape:showpageshadow="0"
     inkscape:pageopacity="0"
     inkscape:pagecheckerboard="0"
     inkscape:deskcolor="#505050"
     inkscape:zoom="0.71329397"
     inkscape:cx="428.29466"
     inkscape:cy="501.19588"
     inkscape:window-width="1920"
     inkscape:window-height="1009"
     inkscape:window-x="-8"
     inkscape:window-y="-8"
     inkscape:window-maximized="1"
     inkscape:current-layer="svg7" />
  <path
     d="m 36.3,60.8 h -8.6 c -0.3,0 -1.1,0 -1.1,-1 h 10.8 c 0,1 -0.8,1 -1.1,1"
     fill="#3e4347"
     id="path7"
     transform="translate(0,-8)" />
  <g
     fill="#212528"
     id="g2"
     transform="translate(0,-8)">
    <path
       d="m 7.3,53.8 h 49.4 c 0.8,0 1.4,-0.6 1.4,-1.4 v -33 C 58.1,18.6 57.5,18 56.7,18 H 7.3 C 6.6,18 6,18.6 6,19.4 v 33 c 0,0.8 0.6,1.4 1.3,1.4"
       id="path1" />
    <path
       d="M 2,58.7 C 2,60.3 3.3,62 5,62 h 54 c 1.6,0 3,-1.7 3,-3.3 z"
       id="path2" />
  </g>
  <path
     fill="#dddddd"
     d="M 57,53.8 H 7 l -5,4.9 h 60 z"
     id="path3"
     transform="translate(0,-8)" />
  <path
     fill="#bfbebe"
     d="M 55.3,54.2 H 8.7 l -1.7,2 h 50 z"
     id="path4"
     transform="translate(0,-8)" />
  <path
     fill="#212528"
     d="M 37.1,57.1 H 26.9 l -0.8,1.1 h 11.8 z"
     id="path5"
     transform="translate(0,-8)" />
  <path
     fill="#3e4347"
     d="M 9,21 H 55 V 50.8 H 9 Z"
     id="path6"
     transform="translate(0,-8)" />
</svg>
